<svg xmlns="http://www.w3.org/2000/svg" width="203" height="16" viewBox="0 0 203 16">
    <g fill="none" fill-rule="evenodd">
        <g>
            <g>
                <g>
                    <path fill="#0A85E0" d="M71.071 15.194L71.071 8.339 63.488 8.339 63.488 15.194 61.592 15.194 61.592.463 63.488.463 63.488 6.589 71.071 6.589 71.071.463 72.989.463 72.989 15.194zM94.36 12.433c.612-.743.918-1.733.918-2.97 0-1.208-.306-2.187-.918-2.937-.611-.75-1.451-1.125-2.52-1.125-1.084 0-1.927.354-2.532 1.063-.604.708-.906 1.708-.906 3 0 1.305.302 2.313.906 3.021.605.708 1.448 1.062 2.531 1.062 1.07 0 1.91-.37 2.521-1.114m-.135-8.261c.632.278 1.177.667 1.636 1.167.444.5.795 1.1 1.052 1.802.256.701.385 1.476.385 2.323s-.129 1.621-.385 2.323c-.257.701-.608 1.31-1.052 1.823-.459.5-1.004.889-1.636 1.167-.632.278-1.33.417-2.093.417-.71 0-1.99-.115-2.69-.43-.912-.41-1.577-1.134-1.812-1.41-.235-.278-1.02-1.193-1.02-3.669V.025h1.896v5.251c.486-.486 1.035-.861 1.646-1.125s1.27-.396 1.98-.396c.763 0 1.461.139 2.093.417M82.622 4.11v6.458c0 .987-.232 1.709-.697 2.167-.466.458-1.272.62-2.126.62-.854 0-1.66-.162-2.125-.62-.466-.458-.698-1.18-.698-2.167V4.109H75.08v7.105c0 .68.111 1.27.334 1.771.222.5.513.917.875 1.25.347.32.75.559 1.208.72.458.158.917.238 1.375.238h1.854c.458 0 .917-.08 1.375-.239.459-.16.862-.4 1.209-.72.362-.332.653-.749.875-1.249.223-.5.333-1.09.333-1.771V4.109h-1.896z" transform="translate(-25 -12) translate(25 12)"/>
                    <path fill="#FFF" d="M15.721 12.448h2.782c1.064 0 1.982-.502 2.755-1.506.656-.826 1.147-1.902 1.472-3.23.45-1.842.392-3.116-.177-3.822-.368-.454-.988-.682-1.861-.682h-2.71l-2.26 9.24zM15.76.786h6.046c2.045 0 3.355.784 3.928 2.35.422 1.16.42 2.614-.008 4.36-.465 1.902-1.24 3.505-2.325 4.81-1.409 1.698-3.118 2.547-5.127 2.547h-5.429c-.269 0-.466-.252-.402-.513L15.759.786zM41.219 12.377L40.614 14.853 50.984 14.853 51.59 12.377 44.036 12.377zM44.056.786L43.446 3.28 46.263 3.28 51.851 3.28 53.951 3.28 54.561.786zM42.717 6.259L42.115 8.717 44.932 8.717 49.953 8.717 50.329 8.717 50.93 6.259 45.534 6.259zM3.33.786L.012 14.342c-.064.26.133.51.4.51h9.845l.606-2.475H3.31l.896-3.66h5.396l.602-2.458H4.807l.73-2.979h7.688l.61-2.494H3.33zM40.594 5.2c.183-1.184-.066-2.219-.747-3.104-.87-1.089-2.262-1.633-4.176-1.633-2.189 0-4.073.76-5.653 2.279-1.392 1.34-2.343 3.05-2.853 5.131-.565 2.309-.383 4.133.545 5.473.859 1.232 2.488 1.847 4.298 1.847 2.976 0 4.588-.87 5.996-2.609 1.085-1.335 1.86-2.977 2.325-4.925.028-.116.05-.228.074-.342H34.609l-.57 2.332h2.715c-.252.583-.549 1.097-.892 1.538-.772 1.03-1.876 1.544-3.012 1.544-1.136 0-1.933-.39-2.457-1.036-.642-.801-.751-2.063-.33-3.786.41-1.674 1.118-2.954 2.124-3.84.896-.777 1.906-1.165 3.03-1.165.48 0 .912.089 1.298.268.306.168.57.39.789.665.169.239.291.496.367.77.073.24.09.437.053.593h2.87z" transform="translate(-25 -12) translate(25 12)"/>
                    <path fill="#0A85E0" d="M102.664 15.292L104.56 15.292 104.56 4.49 102.664 4.49zM103.533 0c-.78 0-1.412.632-1.412 1.412 0 .78.632 1.412 1.412 1.412.78 0 1.412-.632 1.412-1.412 0-.78-.632-1.412-1.412-1.412z" transform="translate(-25 -12) translate(25 12)"/>
                    <path fill="#525E73" d="M112.19 15.292L113.252 15.292 113.252 0.97 112.19 0.97z" transform="translate(-25 -12) translate(25 12)"/>
                </g>
                <path fill="#29B24A" d="M121.44 5.155c-.09-.065-.177-.099-.26-.099h-1.468c-.12 0-.21.036-.269.107-.059.072-.089.156-.089.252v8.234c0 .24.12.359.358.359h1.468c.263 0 .394-.12.394-.359V5.415c0-.108-.044-.194-.135-.26M130.718 5.042h-2.953c-1.766 0-3.203 1.437-3.203 3.202v5.764h2.135V8.244c0-.588.478-1.067 1.068-1.067h2.953c.586 0 1.066.479 1.066 1.067v5.764h2.135V8.244c0-1.765-1.435-3.202-3.201-3.202M139.68 4.877h-1.055V2.102c0-.119-.04-.208-.116-.268-.078-.06-.165-.09-.26-.09h-1.468c-.12 0-.213.036-.278.108-.065.071-.098.155-.098.25v2.775h-.752c-.239 0-.358.12-.358.359v1.27c0 .264.12.395.358.395h.752v4.153c0 .537.08.993.241 1.37.16.376.385.68.67.912.288.233.622.403 1.004.51.38.108.788.161 1.217.161h.143c.239-.024.36-.143.36-.357V12.2c0-.12-.037-.218-.109-.296-.071-.077-.155-.116-.25-.116h-.144c-.251 0-.466-.06-.644-.179-.18-.12-.268-.304-.268-.555V6.9h1.055c.239 0 .36-.131.36-.394V5.236c0-.24-.121-.359-.36-.359M149.266 8.46h-5.088v-.216c0-.588.478-1.066 1.066-1.066h2.954c.588 0 1.068.478 1.068 1.066v.216zm-1.068-3.417h-2.954c-1.765 0-3.2 1.436-3.2 3.201v2.562c0 1.766 1.435 3.202 3.2 3.202h5.088v-2.135h-5.088c-.588 0-1.066-.479-1.066-1.067v-.212h5.87c.745 0 1.352-.606 1.352-1.351v-.999c0-1.765-1.438-3.201-3.202-3.201zM157.09 4.877h-.555c-.429 0-.835.08-1.217.242-.382.161-.716.384-1.003.672-.286.285-.51.62-.67 1.002-.161.382-.242.787-.242 1.217v5.603c0 .097.032.185.098.27.065.083.158.124.277.124h1.468c.096 0 .182-.035.26-.107.077-.071.117-.166.117-.287V8.01c0-.25.09-.466.269-.645.178-.178.392-.268.643-.268h.555c.095 0 .18-.038.251-.116.072-.078.109-.177.109-.295V5.235c0-.215-.121-.334-.36-.358M166.263 11.872h-4.02c-.59 0-1.068-.478-1.068-1.067V8.244c0-.588.478-1.068 1.068-1.068h4.02v4.696zm-7.223-3.628v2.56c0 1.767 1.437 3.204 3.203 3.204h6.154V5.042h-6.154c-1.766 0-3.203 1.437-3.203 3.202zM193.677 10.805c0 .589-.478 1.068-1.068 1.068h-2.953c-.588 0-1.066-.48-1.066-1.068V8.244c0-.588.478-1.067 1.066-1.067h2.953c.59 0 1.068.479 1.068 1.067v2.561zm-1.068-5.763h-2.953c-1.765 0-3.2 1.437-3.2 3.202v2.561c0 1.766 1.435 3.203 3.2 3.203h2.953c1.766 0 3.203-1.437 3.203-3.203V8.244c0-1.765-1.437-3.202-3.203-3.202zM182.99 2.102c0-.119-.04-.208-.116-.268-.078-.06-.165-.09-.26-.09h-1.468c-.12 0-.213.036-.278.108-.065.071-.098.155-.098.25v2.94h-6.634c-1.764 0-3.201 1.437-3.201 3.202v2.561c0 1.766 1.437 3.203 3.201 3.203h5.088v-2.135h-5.088c-.586 0-1.066-.48-1.066-1.068V8.244c0-.588.48-1.067 1.066-1.067h6.634v3.877c0 .537.08.993.241 1.37.16.376.385.68.67.912.289.233.622.403 1.004.511.381.107.788.16 1.217.16h.143c.239-.023.36-.143.36-.357V12.2c0-.12-.037-.218-.109-.296-.071-.077-.155-.116-.25-.116h-.144c-.251 0-.465-.06-.644-.179-.18-.119-.268-.304-.268-.555V7.177h1.95V5.042h-1.95v-2.94zM201.798 4.877h-.555c-.43 0-.836.08-1.217.242-.382.161-.716.384-1.004.672-.285.285-.51.62-.67 1.002-.16.382-.242.787-.242 1.217v5.603c0 .097.032.185.099.27.065.083.157.124.276.124h1.469c.095 0 .181-.035.259-.107.078-.071.118-.166.118-.287V8.01c0-.25.089-.466.268-.645.178-.178.393-.268.644-.268h.555c.095 0 .18-.038.25-.116.072-.078.109-.177.109-.295V5.235c0-.215-.12-.334-.36-.358" transform="translate(-25 -12) translate(25 12)"/>
            </g>
        </g>
    </g>
</svg>
