<svg id="Layer_3" height="24" viewBox="0 0 64 64" width="24" xmlns="http://www.w3.org/2000/svg" data-name="Layer 3"><path fill="#c00000" d="m29 35.191a6 6 0 1 1 6 0v15.809h12.913l-2.661-31.927a2.272 2.272 0 0 0 -2.252-2.073h-22a2.272 2.272 0 0 0 -2.252 2.073l-2.661 31.927h12.913zm-4-14.191a2.172 2.172 0 0 0 -2.168 2.051l-.832 15.005-2-.112.834-15a4.173 4.173 0 0 1 4.166-3.944z"/><path d="m12 53h39.999v4h-39.999z"/><path d="m33 51v-16.422a1 1 0 0 1 .6-.916 4 4 0 1 0 -3.2 0 1 1 0 0 1 .6.916v16.422z"/><path d="m55 59h-46a1 1 0 0 0 0 2h46a1 1 0 0 0 0-2z"/><path d="m31 1h2v10h-2z"/><path d="m48.343 9h11.314v2h-11.314z" transform="matrix(.707 -.707 .707 .707 8.745 41.113)"/><path d="m52 31h11v2h-11z"/><path d="m9 4.343h2v11.314h-2z" transform="matrix(.707 -.707 .707 .707 -4.142 10)"/><path d="m1 31h11v2h-11z"/></svg>