<svg xmlns="http://www.w3.org/2000/svg" width="465" height="257" viewBox="0 0 465 257">
    <g fill="none" fill-rule="evenodd">
        <g>
            <g transform="translate(-1056 -339) translate(1056 339)">
                <path fill="#BA9683" fill-rule="nonzero" d="M169.869 218.45l-7.49-16.474-.987-2.966s-.411-3.047 1.728-3.542l9.547-.412-1.234 5.19-3.292 2.224 4.032 14.333-2.304 1.647z"/>
                <path fill="#DDD" fill-rule="nonzero" d="M173.984 216.803c.576.164 1.152.494.494 1.07l-5.267 5.19s-1.811 1.73-2.963 1.565c0 0-.823 0-.576-.824l1.481-1.977 1.81-3.871s-.658-1.153.66-.742c0 0 1.563.083 2.468-1.565 0 .083 1.317-.082 1.893 1.154z"/>
                <g fill-rule="nonzero">
                    <path fill="#3C5167" d="M8.065 7.331c3.046 3.048 3.375 7.743 3.375 7.743s-4.609-.33-7.736-3.377C.658 8.649.329 3.954.329 3.954s4.691.33 7.736 3.377z" transform="translate(83.947 238.878)"/>
                    <path fill="#455F7A" d="M6.502 8.32c1.07 4.2 4.938 6.836 4.938 6.836s2.057-4.2.987-8.32C11.357 2.637 7.49 0 7.49 0s-2.057 4.119-.987 8.32z" transform="translate(83.947 238.878)"/>
                </g>
                <g fill-rule="nonzero">
                    <path fill="#3C5167" d="M5.35 7.99c-3.046 3.048-3.375 7.743-3.375 7.743s4.61-.33 7.737-3.377c3.045-3.048 3.374-7.743 3.374-7.743s-4.691.33-7.736 3.377z" transform="translate(371.177 238.054)"/>
                    <path fill="#455F7A" d="M6.996 8.979c-1.07 4.2-4.938 6.836-4.938 6.836S0 11.615 1.07 7.495C2.14 3.296 6.008.66 6.008.66s2.057 4.119.988 8.32z" transform="translate(371.177 238.054)"/>
                </g>
                <g fill-rule="nonzero">
                    <path fill="#3C5167" d="M6.502 8.649c-.576 4.283-4.033 7.414-4.033 7.414S-.082 12.19.412 7.908C.988 3.624 4.444.494 4.444.494S7.078 4.366 6.502 8.65z" transform="translate(92.177 238.054)"/>
                    <path fill="#455F7A" d="M4.773 7.99c-2.633 3.377-2.386 8.072-2.386 8.072s4.609-.906 7.242-4.283c2.634-3.377 2.387-8.072 2.387-8.072S7.407 4.53 4.773 7.99z" transform="translate(92.177 238.054)"/>
                </g>
                <g fill-rule="nonzero" transform="translate(162.133)">
                    <path fill="#6184AB" d="M11.193 208.154H106.251V246.20999999999998H11.193z"/>
                    <path fill="#7DACE3" d="M112.505 209.471H4.855c-.987 0-1.81-.823-1.81-1.812v-3.13c0-.988.823-1.812 1.81-1.812h107.65c.988 0 1.81.824 1.81 1.812v3.13c0 .989-.822 1.812-1.81 1.812z"/>
                    <path fill="#73A1D8" d="M69.297 202.8H48.228v-31.796c0-.989.823-1.812 1.81-1.812h17.449c.987 0 1.81.823 1.81 1.812v31.795z"/>
                    <path fill="#6184AB" d="M52.426 148.681H64.277V169.192H52.426z"/>
                    <path fill="#7DACE3" d="M136.537 69.275c38.105 38.138 53.99 87.973 44.196 92.586-25.267 11.943-78.104 23.64-119.172-17.546S32.015 50.33 43.95 25.041c4.69-9.802 54.483 6.096 92.588 44.234z"/>
                    <path fill="#73A1D8" d="M71.355 153.212c-5.267 3.294-12.263 2.718-16.79-1.895-4.526-4.53-5.184-11.614-1.892-16.804 0 0 3.539 4.613 8.806 9.885 5.267 5.272 9.876 8.731 9.876 8.814z"/>
                    <ellipse cx="115.216" cy="90.592" fill="#6184AB" rx="30.135" ry="97.568" transform="rotate(-45 115.216 90.592)"/>
                    <path fill="#54769B" d="M128.142 144.48c5.844.824 10.37-.082 13.25-2.965 11.77-11.78-9.546-52.224-47.651-90.362C55.635 13.015 15.226-8.32 3.457 3.46.577 6.343-.33 10.955.494 16.72 18.6 19.275 48.722 38.55 77.527 67.381c28.806 28.83 47.982 58.977 50.615 77.1z" opacity=".43" transform="translate(42.796 18.122)"/>
                    <path fill="#5C7EA4" d="M66.746 80.724c7.572 10.132 16.707 20.758 27.16 31.22 10.452 10.46 20.986 19.604 31.191 27.182-.658-6.672-10.04-20.593-23.95-34.431-13.908-13.839-27.735-23.312-34.401-23.97z"/>
                    <path fill="#96C3FC" d="M17.036 213.92H24.443V221.333H17.036z" opacity=".8"/>
                    <path fill="#96C3FC" d="M29.052 213.92H36.459V221.333H29.052z" opacity=".5"/>
                    <path fill="#96C3FC" d="M41.068 213.92H69.297V221.333H41.068z" opacity=".2"/>
                    <path fill="#7DACE3" d="M106.744 244.891H10.617c-5.514 0-10.04 4.53-10.04 10.05h116.29c0-5.52-4.526-10.05-10.123-10.05z"/>
                    <path fill="#5C7EA4" d="M11.193 209.471L106.25 214.167 106.25 209.471z"/>
                    <path fill="#3F83BC" d="M52.426 148.681s3.539 6.672 11.851 6.672v3.625c-.082-.083-9.63-2.636-11.851-10.297z"/>
                    <path fill="#73A1D8" d="M136.537 69.275C98.432 31.137 58.022 9.802 46.253 21.58c-11.769 11.78 9.547 52.224 47.652 90.362 38.106 38.138 78.515 59.473 90.284 47.694 11.77-11.78-9.547-52.224-47.652-90.362zm45.43 88.137c-1.563 1.566-3.95 2.307-7.16 2.307-16.954 0-49.298-20.593-78.762-50-39.34-39.373-56.705-76.935-47.652-85.996 1.564-1.565 3.95-2.306 7.16-2.306 16.954 0 49.298 20.593 78.762 50 39.34 39.455 56.705 76.935 47.652 85.995z"/>
                    <path fill="#CFD8E2" d="M112.258 121.087c-.329 0-.658-.083-.905-.248-.905-.494-1.152-1.647-.658-2.553l33.99-57.166-57.117 34.02c-.905.494-1.975.247-2.551-.66-.494-.906-.247-1.976.658-2.553L149.047 54.2c.74-.412 1.646-.33 2.222.247.576.576.74 1.565.247 2.224l-37.694 63.426c-.33.66-.987.989-1.564.989z"/>
                    <path fill="#CBDFF4" d="M84.91 79.817L161.153 79.784 161.15 85.712 84.907 85.745z" transform="rotate(-45 123.03 82.764)"/>
                    <ellipse cx="149.541" cy="56.26" fill="#7DACE3" rx="7.983" ry="7.99"/>
                    <path fill="#73A1D8" d="M11.934 2.06C11.358 1.482 10.617.987 9.958.658c2.305 3.13 2.058 7.496-.74 10.379-2.47 2.471-6.255 2.965-9.218 1.4.247.33.494.66.74.906 3.128 3.13 8.148 3.13 11.276 0 3.045-3.13 3.045-8.237-.082-11.285z" opacity=".23" transform="translate(143.204 48.6)"/>
                    <path fill="#7DACE3" d="M172.338 58.484c-1.234 0-2.222-.988-2.222-2.142-.082-5.519-2.387-10.955-6.008-14.58-3.786-3.789-8.724-5.93-14.073-6.013-1.235 0-2.223-1.07-2.14-2.306 0-1.236.987-2.142 2.222-2.142h.082c6.42.165 12.51 2.8 17.119 7.331 4.526 4.53 7.16 10.956 7.324 17.628-.082 1.153-1.07 2.224-2.304 2.224z"/>
                    <path fill="#7DACE3" d="M186.082 58.484c-1.234 0-2.222-.988-2.222-2.224 0-9.226-3.621-17.875-10.04-24.382-6.502-6.507-15.144-10.05-24.28-10.05-1.234 0-2.221-.988-2.221-2.224 0-1.235.987-2.224 2.222-2.224 10.37 0 20.081 4.037 27.488 11.368 7.325 7.33 11.358 17.05 11.358 27.43-.083 1.318-1.07 2.306-2.305 2.306z"/>
                    <path fill="#7DACE3" d="M201.308 58.484c-1.235 0-2.222-.988-2.222-2.224 0-13.262-5.185-25.7-14.485-35.09-9.382-9.39-21.81-14.498-35.06-14.498h-.165c-1.234 0-2.222-.988-2.222-2.224 0-1.236.988-2.224 2.222-2.224h.165c14.402 0 27.982 5.601 38.187 15.815 10.206 10.215 15.802 23.806 15.802 38.22 0 1.237-1.07 2.225-2.222 2.225z"/>
                    <g opacity=".8" transform="translate(37.035 60.131)">
                        <path fill="#CBDFF4" d="M15.39 65.156c-.494 0-.905-.247-1.234-.659C-.412 43.245-1.152 18.781.823 2.06c.082-.823.823-1.4 1.646-1.318.823.083 1.4.824 1.317 1.648C1.893 18.616 2.55 42.257 16.625 62.767c.494.66.329 1.565-.412 2.06-.247.247-.576.33-.823.33z"/>
                        <ellipse cx="21.234" cy="71.663" fill="#FFF" rx="2.634" ry="2.636"/>
                    </g>
                </g>
                <path fill="#537296" fill-rule="nonzero" d="M60.738 181.96c-.165-29.243-20.904-52.883-20.904-52.883s-20.576 23.805-20.411 53.047c.082 24.959 15.308 45.799 19.67 51.4v21.417h2.14v-21.005c3.95-5.025 19.67-26.441 19.505-51.977z" opacity=".453"/>
                <path fill="#537296" fill-rule="nonzero" d="M440.475 181.96c-.165-29.243-20.905-52.883-20.905-52.883s-20.575 23.805-20.41 53.047c.082 24.959 15.307 45.799 19.67 51.4v21.417h2.139v-21.005c3.95-5.025 19.588-26.441 19.506-51.977z" opacity=".432"/>
                <path fill="#354557" fill-rule="nonzero" d="M108.473 205.765c0-17.545-14.238-31.796-31.769-31.796-17.53 0-31.768 14.25-31.768 31.796 0 17.133 13.58 31.136 30.534 31.713v15.898h2.469v-15.898c16.954-.577 30.534-14.58 30.534-31.713z" opacity=".82"/>
                <path fill="#537296" fill-rule="nonzero" d="M333.977 227.593c0-9.555-7.736-17.215-17.2-17.215-9.548 0-17.202 7.743-17.202 17.215 0 9.308 7.325 16.886 16.543 17.216v8.649h1.317v-8.649c9.135-.33 16.542-7.908 16.542-17.216zM370.107 238.549c0-5.52-4.444-9.967-9.958-9.967s-9.959 4.448-9.959 9.967c0 5.354 4.28 9.72 9.547 9.967v4.942h.74v-4.942c5.35-.247 9.63-4.613 9.63-9.967z" opacity=".5"/>
                <path fill="#3C4E64" fill-rule="nonzero" d="M162.38 238.549c0-5.52-4.445-9.967-9.959-9.967-5.514 0-9.958 4.448-9.958 9.967 0 5.354 4.28 9.72 9.547 9.967v4.942h.74v-4.942c5.35-.247 9.63-4.613 9.63-9.967z"/>
                <path fill="#354557" fill-rule="nonzero" d="M365.827 216.555c0-13.59-11.028-24.546-24.525-24.546-13.58 0-24.526 11.037-24.526 24.546 0 13.262 10.452 24.053 23.62 24.547v12.356h1.893v-12.356c13.086-.494 23.538-11.285 23.538-24.547z"/>
                <path fill="#354557" fill-rule="nonzero" d="M406.649 159.719h-14.897c-2.304 0-4.197 1.894-4.197 4.2v65.98c0 2.307 1.893 4.202 4.197 4.202h6.749V255.6h1.481v-21.5h6.749c2.304 0 4.197-1.894 4.197-4.2v-65.98c-.082-2.307-1.975-4.201-4.28-4.201z" opacity=".868"/>
                <g fill-rule="nonzero">
                    <path fill="#40678E" d="M10.617 1.565S8.312 3.954 6.83 7.413C4.691 3.542 1.399 1.4 1.399 1.4S-.494 7.25 1.235 12.685c1.81 5.52 6.584 8.65 6.584 8.65s.082-.248.164-.742c.165.247.247.412.33.494.082.083.082.165.082.165l.247-.247c1.316-.494 1.975-19.44 1.975-19.44z" opacity=".27" transform="translate(257.602 233.112)"/>
                    <g>
                        <path fill="#3C5167" d="M11.358 10.955c-3.786 4.366-3.95 10.132-3.95 10.132s6.007-1.318 9.793-5.683c3.786-4.366 3.95-10.132 3.95-10.132s-6.008 1.318-9.793 5.683z" transform="translate(257.602 233.112) translate(.823)"/>
                        <path fill="#455F7A" d="M13.415 11.862c-1.152 5.354-6.008 9.39-6.008 9.39s-2.88-4.613-1.728-9.967 6.008-9.39 6.008-9.39 2.963 4.612 1.728 9.967z" transform="translate(257.602 233.112) translate(.823)"/>
                        <path fill="#3C5167" d="M8.148 9.967C6.913 4.283 2.469.741 2.469.741S-.082 6.343 1.152 12.026c1.235 5.684 5.679 9.226 5.679 9.226S9.3 15.65 8.148 9.967z" transform="translate(257.602 233.112) translate(.823)"/>
                    </g>
                </g>
                <path fill="#6184AB" fill-rule="nonzero" d="M463.025 256.67H1.893c-.823 0-1.481-.658-1.481-1.482s.658-1.483 1.48-1.483h461.133c.823 0 1.481.66 1.481 1.483 0 .824-.658 1.483-1.481 1.483z"/>
                <g>
                    <path fill="#EDB7B7" fill-rule="nonzero" d="M52.014 58.237s.576-3.377-3.621-6.178l-3.128 5.107s1.811 1.4 1.4 2.636c0 0-.412 4.53 4.28 12.356 0 0 2.797 5.19 3.867 7.66 0 0 3.128.577 2.716-2.224.165 0-4.938-13.591-5.514-19.357z" transform="translate(56.788 170.51)"/>
                    <path fill="#004EAE" fill-rule="nonzero" d="M38.6 45.387s6.83 12.932 6.995 12.85c.082-.083 5.596 19.11 6.584 18.286.74-.576 2.304-1.4 5.02-2.635-.494-4.943-3.457-15.98-4.115-18.452-.082-.33-.247-.659-.411-.906-1.482-1.977-6.75-15.403-8.807-19.193L38.6 45.388z" transform="translate(56.788 170.51)"/>
                    <path fill="#FBBEBE" fill-rule="nonzero" d="M9.218 59.555s-2.305 1.07-6.749 1.483l1.4 3.46s3.703-1.236 9.217-1.319c0 0 6.749-1.483-3.868-3.624z" transform="translate(56.788 170.51)"/>
                    <path fill="#025FD0" fill-rule="nonzero" d="M32.344 30.807L25.596 55.52 7.325 59.472l.411 5.025 21.892-1.894c1.153-.083 2.14-.742 2.634-1.73l11.522-21.994s1.81-2.965.823-6.013l-12.263-2.059z" transform="translate(56.788 170.51)"/>
                    <path fill="#EDB7B7" fill-rule="nonzero" d="M63.536 22.9c-.494-.66-1.317-.66-1.81-.33l-2.47 2.06-4.69 2.717 1.728 2.554 4.28-3.46 2.633-1.647c.494-.412.74-1.236.33-1.895z" transform="translate(56.788 170.51)"/>
                    <path fill="#025FD0" fill-rule="nonzero" d="M51.685 27.677l5.432-2.224 1.893 2.965-4.033 3.048c0-.165-2.798-1.153-3.292-3.79zM42.55 12.85l1.728.824s1.728-.247 3.21 2.718l3.045 10.296c-.083 0-6.502-12.108-7.983-13.838z" transform="translate(56.788 170.51)"/>
                    <path fill="#025FD0" fill-rule="nonzero" d="M45.265 15.486c-1.563 1.153 1.153 7.249 0 10.543 0 0 .823 11.78 9.712 5.272l-.576-4.613-2.798.907-3.622-10.626c.083 0-.905-3.213-2.716-1.483z" transform="translate(56.788 170.51)"/>
                    <path fill="#D9DEE2" fill-rule="nonzero" d="M45.924 15.321s-.494-.082.576-.082l.33.082c.987 3.46.328 6.672-.165 10.214l-.906 10.873s-1.893 2.801-2.057 0c-.247-6.095-.33-16.639 2.222-21.087z" transform="translate(56.788 170.51)"/>
                    <g>
                        <path fill="#FBBEBE" d="M10.37 3.542c.576 2.306-.576 7.331-2.387 7.496-.576 0-1.646-.165-2.716-1.236L4.61 14.91.082 13.756l3.457-6.92c-.576-1.235-.905-2.635-.412-4.035 1.317-3.872 6.667-1.565 7.243.741z" transform="translate(56.788 170.51) translate(41.15) translate(0 1.647)"/>
                        <g fill-rule="nonzero">
                            <path fill="#2F2E41" d="M2.798 2.306S3.538-.659 6.09.412c0 0 .659.33 1.893 1.318l.494.494c.494.494 2.14 1.895 3.374.577 0 0 .083 1.73-1.81 3.13 0 0-4.362 2.965-7.407-.577 0 0-.988 1.318-.906 3.377 0 0-.164 0-.576-.164-.082-.247-.164-.824-.247-1.4-1.152-2.39-.164-5.272 1.893-4.86z" transform="translate(56.788 170.51) translate(41.15) translate(1.646)"/>
                            <path fill="#2F2E41" d="M2.963 3.295s.164-1.977-1.07-2.06c0 0 1.152.66 1.07 2.06z" transform="translate(56.788 170.51) translate(41.15) translate(1.646)"/>
                            <path fill="#2F2E41" d="M3.21 2.636S1.728 1.4.905 2.389c.083 0 .823-.66 2.305.247z" transform="translate(56.788 170.51) translate(41.15) translate(1.646)"/>
                            <path fill="#343449" d="M2.798 2.306s2.058-3.047 4.938.577c0 0 1.893 2.06 4.28 0 0 0-2.47 3.79-5.514.082 0 0-1.4-2.224-3.704-.659zM4.28 4.201s1.975 2.8 5.102.906c0-.082-2.057 1.318-5.102-.906z" transform="translate(56.788 170.51) translate(41.15) translate(1.646)"/>
                            <path fill="#343449" d="M2.798 2.306S.33 2.224 1.728 6.672c0 .082-1.07-2.553 1.07-4.366z" transform="translate(56.788 170.51) translate(41.15) translate(1.646)"/>
                            <path fill="#223" d="M2.716 3.212S1.235 5.603 5.02 6.92c0 0-3.045-1.07-2.304-3.706z" transform="translate(56.788 170.51) translate(41.15) translate(1.646)"/>
                        </g>
                        <path fill="#FBBEBE" fill-rule="nonzero" d="M9.958 7.578s1.317 1.648.823 2.224c0 0-.329.577-1.07-.082-.658-.494.247-2.142.247-2.142z" transform="translate(56.788 170.51) translate(41.15)"/>
                        <path fill="#EAB0B0" fill-rule="nonzero" d="M5.35 11.532l-.165 1.07s-.988-1.07-1.235-2.635c0-.082.577.906 1.4 1.565zM3.704 7.002s.082 1.4.74 1.318c0 0-.74.906-.74-1.318z" transform="translate(56.788 170.51) translate(41.15)"/>
                        <path fill="#2F2E41" fill-rule="nonzero" d="M3.704 6.92s.411-1.319 1.481-.742c0 0-.494-.247-.988-1.236-.493-.988-.493 1.977-.493 1.977z" transform="translate(56.788 170.51) translate(41.15)"/>
                    </g>
                    <path fill="#0978FF" fill-rule="nonzero" d="M43.043 11.78s1.646 2.47 3.457 3.541l.082.906s-1.975 13.344.33 22.323c-11.523 1.4-16.79-1.647-18.107-2.965-.658-11.45 7.407-24.3 14.238-23.806z" transform="translate(56.788 170.51)"/>
                    <path fill="#C2C8CC" fill-rule="nonzero" d="M46.829 15.321L46.253 13.262 46.088 14.58 46.747 15.321z" transform="translate(56.788 170.51)"/>
                    <path fill="#F2F2F2" fill-rule="nonzero" d="M46.253 13.262L46.829 15.321 47.652 15.815 46.253 12.932z" transform="translate(56.788 170.51)"/>
                    <path fill="#025FD0" fill-rule="nonzero" d="M41.562 11.532L45.265 16.969 46.747 15.404 45.512 16.31z" transform="translate(56.788 170.51)"/>
                    <path fill="#E5E5E5" fill-rule="nonzero" d="M56.623 24.959L59.01 29.077 60.08 28.501 57.693 24.547z" transform="translate(56.788 170.51)"/>
                    <path fill="#FBBEBE" fill-rule="nonzero" d="M37.118 39.291c.74-.494.74-1.4.329-1.977l-2.305-2.635-3.045-4.943-2.716 1.977 3.869 4.53 1.81 2.801c.412.494 1.317.742 2.058.247z" transform="translate(56.788 170.51)"/>
                    <path fill="#0978FF" fill-rule="nonzero" d="M43.043 11.78s-2.962-1.566-8.477 3.541l-8.641 5.52s-2.798 1.4-1.4 4.612l6.75 9.884 2.715-2.553-3.703-7.413s2.798-1.4 6.584-4.037l6.172-9.555z" transform="translate(56.788 170.51)"/>
                    <path fill="#F2F2F2" fill-rule="nonzero" d="M42.961 11.45L41.397 11.45 45.512 16.31 46.912 15.321z" transform="translate(56.788 170.51)"/>
                    <path fill="#025FD0" fill-rule="nonzero" d="M31.521 24.794s4.115-1.977 7.325-3.872c0 0-7.819 4.613-4.938 11.697 0-.082-2.88-5.354-3.045-6.178.411-.659.576-1.4.658-1.647z" opacity=".58" transform="translate(56.788 170.51)"/>
                    <path fill="#F2F2F2" fill-rule="nonzero" d="M30.534 35.585L34.237 32.372 35.307 33.443 31.439 36.408z" transform="translate(56.788 170.51)"/>
                    <path fill="#DDD" fill-rule="nonzero" d="M54.236 81.466c-.164.741-.247 1.482.823 1.235l8.971-2.388s3.045-.824 3.539-2.142c0 0 .494-.906-.494-1.153l-3.127.33-5.35-.495s-.823-1.4-1.152.247c0 0-1.481 2.06-3.786 1.977 0 0-.082 1.483.576 2.389zM2.387 60.049c-.576-.33-1.235-.659-1.317.33l-.576 8.566s-.165 2.883.823 3.79c0 0 .658.74 1.152-.083l.658-2.883 2.058-4.53s1.481-.33.165-1.071c0 0-1.4-1.895-.577-3.872-.164-.082-1.399-.576-2.386-.247z" transform="translate(56.788 170.51)"/>
                </g>
                <path fill="#C4A18A" fill-rule="nonzero" d="M177.194 195.468l-15.802 3.542s-2.304.083-2.387 3.954l-4.444 19.275 2.47.494 6.83-18.121 16.625-2.554-3.292-6.59zM165.919 172.487l-2.716-3.295s-2.716.33-3.292-.33c-.576-.659 0-1.73 0-1.73s.658-1.4 2.469-.494l1.81.824.741.494 2.634 3.295-1.646 1.236z"/>
                <path fill="#C4A18A" fill-rule="nonzero" d="M161.968 167.215l-3.95-1.071c-.165-.082-.247-.247-.247-.412.082-.165.247-.247.411-.247l3.54.824c.164.082.658.494.658.659-.083.247-.247.33-.412.247z"/>
                <path fill="#C4A18A" d="M198.345 203.129c-1.152-.824-2.88-2.224-3.127-2.718-.494-.989-3.375-10.215-3.375-10.215l-2.798.577s3.868 9.473 4.115 10.05c.247.576 0 1.4-.329 2.059l-.576 1.235c-.082.165 0 .33.164.412 0 0 .33.165.494-.082 0 0 .988-1.895 1.729-1.565.164.082.246.164.411.247l.74.494c.577.33 1.318.66 2.058.494.247-.082.659-.164.741-.412.082-.164-.082-.411-.247-.576z"/>
                <path fill="#E52C28" fill-rule="nonzero" d="M182.708 172.239L171.104 174.134 167.318 169.768 164.519 172.075 168.058 178.005 180.404 178.417z"/>
                <g>
                    <path fill="#191847" d="M10.37 4.86c0-.412-.082-.906-.165-1.318-.247-.741-.74-1.318-1.317-1.812C7.736.906 6.338.494 4.938.494 1.975.494-.576 2.554.165 5.272c.164.494.329.659.493 1.07.412 2.06 2.223 3.543 4.362 3.543h.165c.247.082.411.164.658.164.494 0 .906-.082 1.317-.164 1.646-.577 2.716-2.142 3.045-3.79v-.164c.083-.412.165-.742.165-1.071z" transform="translate(178.593 158.978)"/>
                    <path fill="#CEAC91" d="M8.23 3.295c.082 1.4-.494 2.636-1.399 3.707l1.564 7.248H3.868l.74-5.436c-.987.823-1.974 1.235-2.962.906C-.329 8.814.082 4.2 1.235 2.142 2.305.165 7.9-.741 8.23 3.295z" transform="translate(178.593 158.978) translate(0 1.647)"/>
                </g>
                <path fill="#CEAC91" fill-rule="nonzero" d="M179.169 165.155s-1.317 1.648-.823 2.142c0 0 .33.577 1.07-.082.576-.412-.247-2.06-.247-2.06z"/>
                <path fill="#C9A68F" fill-rule="nonzero" d="M183.284 169.439s.494-.165 1.4-.989c0 0-.66 1.483-1.482 1.977l.082-.988z"/>
                <path fill="#191847" fill-rule="nonzero" d="M186.082 161.202s-4.773-1.154-6.666 1.235c0 0-.494 1.4 3.703 3.048.083-.412.33-.659.659-.659.411 0 .658.412.658.988 0 .083-.082.577-.164.742 0 0 .987.247 1.152 1.07 0 0 .905-.411 1.564-1.976 0 0 .74-2.883-.906-4.448z"/>
                <path fill="#FF4133" fill-rule="nonzero" d="M188.963 172.98l2.798 16.228 2.88 7.908-2.88 1.482-4.444-9.72-2.963-10.049c0 .083-.576-8.567 4.609-5.848z"/>
                <path fill="#FF4133" fill-rule="nonzero" d="M189.374 179.488s1.646-6.425-2.469-8.484l-5.35 1.565-3.95 7.578s-.823 1.483 0 3.872l-.905 7.66-13.168 3.625s7.736 10.46 9.711 13.508c1.564-2.635 9.383-4.118 9.383-4.118s4.444 0 5.843-8.567c2.058-10.05.905-16.639.905-16.639z"/>
                <path fill="#DB2721" fill-rule="nonzero" d="M189.127 192.75l-1.728-3.79-2.304-7.742s6.09 17.792-15.39 22.405c0 0 1.316 1.812 3.538 5.107 1.976-2.965 8.642-3.542 10.535-4.448 3.127-1.4 4.197-5.354 4.444-7.002.74-3.624.905-4.53.905-4.53z" opacity=".32"/>
                <path fill="#DDD" fill-rule="nonzero" d="M158.182 224.298c.247.495.494 1.154-.329 1.154l-7.407.082s-2.469 0-3.21-.906c0 0-.576-.577.083-.989l2.469-.411 4.032-1.566s.33-1.235.906-.082c0 0 1.07 1.153 2.798.577.082.082 1.07.906.658 2.141z"/>
                <ellipse cx="189.292" cy="158.401" fill="#191847" fill-rule="nonzero" rx="3.21" ry="3.212"/>
                <path fill="#FF4133" fill-rule="nonzero" d="M188.304 161.778c-.082 0-.164 0-.164-.082-.823-1.153-1.646-1.483-1.646-1.483-.082-.082-.165-.165-.165-.33.083-.082.165-.164.33-.164 0 0 .987.33 1.892 1.565.083.082.083.247-.082.33-.082.164-.165.164-.165.164z"/>
            </g>
        </g>
    </g>
</svg>
