<svg xmlns="http://www.w3.org/2000/svg" width="379.494" height="28.706" viewBox="0 0 379.494 28.706">
  <g id="loginlogo-interactor" transform="translate(-0.001)">
    <g id="그룹_5" data-name="그룹 5">
      <g id="그룹_4" data-name="그룹 4">
        <g id="그룹_3" data-name="그룹 3">
          <path id="패스_6" data-name="패스 6" d="M133.417,28.522V15.654H119.181V28.522h-3.559V.87h3.559v11.5h14.236V.87h3.6V28.522Zm43.72-5.182a8.507,8.507,0,0,0,1.721-5.574,8.456,8.456,0,0,0-1.721-5.515,5.774,5.774,0,0,0-4.733-2.112,5.909,5.909,0,0,0-4.752,1.995,8.426,8.426,0,0,0-1.7,5.632,8.5,8.5,0,0,0,1.7,5.671,5.913,5.913,0,0,0,4.753,2,5.8,5.8,0,0,0,4.733-2.093m-.255-15.507a9.071,9.071,0,0,1,3.072,2.19,10.45,10.45,0,0,1,1.974,3.383,12.6,12.6,0,0,1,.723,4.36,12.6,12.6,0,0,1-.723,4.361,10.937,10.937,0,0,1-1.974,3.423,9.071,9.071,0,0,1-3.072,2.19,9.65,9.65,0,0,1-3.93.783,14.982,14.982,0,0,1-5.05-.807,10.29,10.29,0,0,1-3.4-2.648c-.441-.52-1.915-2.239-1.915-6.885V.048h3.56V9.9a9.886,9.886,0,0,1,3.09-2.112,9.27,9.27,0,0,1,3.715-.743,9.634,9.634,0,0,1,3.93.783M155.1,7.714V19.84a5.5,5.5,0,0,1-1.31,4.067,7.419,7.419,0,0,1-7.979,0,5.5,5.5,0,0,1-1.31-4.067V7.714h-3.56V21.051a8.138,8.138,0,0,0,.627,3.325,7,7,0,0,0,1.642,2.346,6.457,6.457,0,0,0,2.269,1.35,7.8,7.8,0,0,0,2.582.45h3.48a7.8,7.8,0,0,0,2.582-.45,6.444,6.444,0,0,0,2.268-1.35,6.98,6.98,0,0,0,1.642-2.346,8.105,8.105,0,0,0,.627-3.325V7.714ZM29.513,23.368h5.22a6.381,6.381,0,0,0,5.172-2.828,15.559,15.559,0,0,0,2.764-6.063Q43.938,9.29,42.337,7.3a4.25,4.25,0,0,0-3.493-1.28H33.758L29.513,23.368Zm.07-21.892h11.35q5.76,0,7.375,4.412,1.187,3.267-.016,8.185A22.09,22.09,0,0,1,43.927,23.1,12.089,12.089,0,0,1,34.3,27.882H24.112a.778.778,0,0,1-.756-.963L29.583,1.476Zm47.8,21.758-1.138,4.648H95.709l1.138-4.648H77.379ZM82.7,1.476,81.558,6.158h19.721l1.145-4.682ZM80.19,11.749l-1.13,4.614H94.478l1.129-4.614H80.19ZM6.25,1.476.024,26.924a.773.773,0,0,0,.751.958H19.257l1.137-4.648H6.213l1.682-6.87h10.13l1.13-4.615H9.024l1.369-5.591H24.826l1.145-4.682H6.251ZM76.205,9.761a7.332,7.332,0,0,0-1.4-5.826Q72.352.868,66.963.869A14.783,14.783,0,0,0,56.351,5.147,19.427,19.427,0,0,0,51,14.78q-1.59,6.5,1.022,10.273c1.612,2.312,4.67,3.469,8.069,3.469,5.586,0,8.612-1.633,11.256-4.9a22.869,22.869,0,0,0,4.365-9.246c.052-.219.091-.428.137-.642H64.97L63.9,18.114H69A13.3,13.3,0,0,1,67.321,21a7,7,0,0,1-5.654,2.9,5.6,5.6,0,0,1-4.613-1.945q-1.806-2.256-.618-7.107a13.593,13.593,0,0,1,3.987-7.208,8.451,8.451,0,0,1,5.689-2.188,5.7,5.7,0,0,1,2.436.505A4.868,4.868,0,0,1,70.028,7.2a4.637,4.637,0,0,1,.69,1.448,2.153,2.153,0,0,1,.1,1.111h5.39ZM192.724,28.706h3.559V8.43h-3.559ZM194.355,0A2.65,2.65,0,1,0,197,2.65,2.65,2.65,0,0,0,194.355,0Zm16.251,28.706H212.6V1.821h-1.995Z" fill-rule="evenodd"/>
        </g>
        <path id="패스_7" data-name="패스 7" d="M227.97,9.677a.842.842,0,0,0-.487-.185h-2.756a.617.617,0,0,0-.5.2.724.724,0,0,0-.168.472V25.623a.594.594,0,0,0,.672.673h2.756q.739,0,.74-.673V10.165a.573.573,0,0,0-.253-.488m17.418-.212h-5.544a6.018,6.018,0,0,0-6.012,6.01V26.3h4.007V15.475a2.006,2.006,0,0,1,2.005-2h5.544a2.008,2.008,0,0,1,2,2V26.3H251.4V15.476a6.015,6.015,0,0,0-6.01-6.01m16.825-.31h-1.981V3.946a.6.6,0,0,0-.218-.5.781.781,0,0,0-.49-.168H256.77a.667.667,0,0,0-.522.2.677.677,0,0,0-.185.47V9.156h-1.412a.594.594,0,0,0-.671.673v2.386q0,.74.671.74h1.412v7.8a6.56,6.56,0,0,0,.453,2.573,4.379,4.379,0,0,0,1.259,1.712,5.214,5.214,0,0,0,1.883.959,8.4,8.4,0,0,0,2.286.3h.268c.448-.045.675-.268.675-.671V22.9a.8.8,0,0,0-.2-.555.628.628,0,0,0-.472-.218h-.268a2.12,2.12,0,0,1-1.209-.336,1.163,1.163,0,0,1-.5-1.043v-7.8h1.981c.448,0,.675-.246.675-.74V9.83a.6.6,0,0,0-.675-.673m17.994,6.724h-9.55v-.4a2,2,0,0,1,2-2H278.2a2.007,2.007,0,0,1,2.005,2v.4ZM278.2,9.467h-5.544a6.014,6.014,0,0,0-6.008,6.01v4.808a6.014,6.014,0,0,0,6.008,6.01h9.551v-4h-9.55a2.005,2.005,0,0,1-2-2v-.4h11.018a2.541,2.541,0,0,0,2.539-2.537V15.478a6.019,6.019,0,0,0-6.012-6.01Zm16.694-.311h-1.042a5.853,5.853,0,0,0-5.88,5.881V25.555a.79.79,0,0,0,.185.5.616.616,0,0,0,.519.235h2.756a.719.719,0,0,0,.707-.74V15.037a1.723,1.723,0,0,1,1.713-1.714H294.9a.623.623,0,0,0,.471-.218.79.79,0,0,0,.2-.554V9.827c0-.4-.227-.626-.674-.671m17.218,13.131h-7.545a2,2,0,0,1-2.005-2V15.475a2.006,2.006,0,0,1,2.005-2h7.545v8.815Zm-13.557-6.812v4.808a6.019,6.019,0,0,0,6.012,6.012H316.12V9.465H304.568A6.018,6.018,0,0,0,298.556,15.475Zm65.022,4.809a2.007,2.007,0,0,1-2.006,2h-5.543a2.006,2.006,0,0,1-2-2V15.475a2.006,2.006,0,0,1,2-2h5.543a2.007,2.007,0,0,1,2.006,2ZM361.572,9.465h-5.543a6.017,6.017,0,0,0-6.01,6.01v4.809a6.018,6.018,0,0,0,6.01,6.012h5.543a6.02,6.02,0,0,0,6.013-6.012V15.475A6.019,6.019,0,0,0,361.572,9.465ZM343.514,3.946a.606.606,0,0,0-.217-.5.794.794,0,0,0-.49-.167h-2.754a.664.664,0,0,0-.521.2.672.672,0,0,0-.186.47V9.465H326.894a6.019,6.019,0,0,0-6.01,6.01v4.809a6.02,6.02,0,0,0,6.01,6.012h9.55V22.288h-9.55a2.008,2.008,0,0,1-2-2V15.476a2.008,2.008,0,0,1,2-2h12.452V20.75a6.541,6.541,0,0,0,.454,2.573,4.36,4.36,0,0,0,1.259,1.712,5.231,5.231,0,0,0,1.883.96,8.471,8.471,0,0,0,2.285.3h.269c.447-.044.674-.269.674-.67V22.9a.789.789,0,0,0-.2-.555.626.626,0,0,0-.471-.218h-.269a2.119,2.119,0,0,1-1.208-.336,1.162,1.162,0,0,1-.505-1.043V13.472h3.66V9.465h-3.66Zm35.306,5.21h-1.04a5.8,5.8,0,0,0-2.285.453,5.852,5.852,0,0,0-3.6,5.428V25.555a.79.79,0,0,0,.185.5.616.616,0,0,0,.519.235h2.757a.721.721,0,0,0,.707-.74V15.037a1.721,1.721,0,0,1,1.713-1.714h1.04a.625.625,0,0,0,.473-.218.789.789,0,0,0,.2-.554V9.827c0-.4-.226-.626-.674-.671" fill-rule="evenodd"/>
      </g>
    </g>
  </g>
</svg>
