<svg xmlns="http://www.w3.org/2000/svg" xmlns:xlink="http://www.w3.org/1999/xlink" width="320" height="25" viewBox="0 0 320 25">
    <defs>
        <path id="yl7xx3lesa" d="M0 0L86.247 0 86.247 23.375 0 23.375z"/>
        <path id="qvx39imnac" d="M0 24.181L320 24.181 320 0 0 0z"/>
    </defs>
    <g fill="none" fill-rule="evenodd">
        <g>
            <g transform="translate(-130.000000, -69.000000) translate(130.000000, 69.000000)">
                <path fill="#0A85E0" d="M130.764 6.512v10.295c0 1.573-.367 2.724-1.1 3.454-.738.73-2.012.989-3.36.989-1.35 0-2.623-.259-3.359-.989-.737-.73-1.102-1.88-1.102-3.454V6.51h-2.997v11.326c0 1.085.176 2.024.529 2.823.349.798.809 1.463 1.38 1.994.55.509 1.186.89 1.91 1.147.724.251 1.45.379 2.173.379h2.93c.723 0 1.45-.128 2.173-.38.725-.255 1.361-.639 1.91-1.15.572-.527 1.031-1.192 1.383-1.99.353-.797.526-1.737.526-2.823V6.51h-2.996v.002zm18.334.099c.999.442 1.86 1.063 2.587 1.86.7.798 1.255 1.754 1.662 2.872.404 1.119.608 2.354.608 3.704s-.203 2.583-.608 3.703c-.407 1.117-.961 2.088-1.662 2.906-.726.796-1.588 1.416-2.587 1.86-.997.443-2.1.665-3.307.665-1.122 0-3.144-.184-4.251-.686-1.44-.653-2.491-1.807-2.862-2.248-.372-.443-1.613-1.901-1.613-5.848V0h2.997v8.371c.768-.776 1.636-1.373 2.6-1.794.966-.421 2.007-.631 3.129-.631 1.207 0 2.31.222 3.307.665zm.214 13.168c.967-1.185 1.45-2.762 1.45-4.734 0-1.925-.483-3.486-1.45-4.682-.964-1.196-2.293-1.793-3.982-1.793-1.712 0-3.045.565-4 1.694-.955 1.128-1.432 2.723-1.432 4.783 0 2.08.477 3.687 1.431 4.815.956 1.13 2.289 1.694 4 1.694 1.69 0 3.019-.59 3.983-1.777zm-36.802 4.402V13.254H100.53V24.18H97.53V.7h2.998v9.764h11.981V.7h3.031V24.18h-3.03z"/>
                <g transform="translate(0.000000, 0.806045)">
                    <mask id="fo4goy2xpb" fill="#fff">
                        <use xlink:href="#yl7xx3lesa"/>
                    </mask>
                    <path fill="#3D3F44" d="M64.17 7.518c.288-1.88-.105-3.521-1.182-4.926C61.613.862 59.412 0 56.388 0c-3.461 0-6.44 1.206-8.937 3.617-2.2 2.127-3.704 4.84-4.51 8.143-.893 3.664-.605 6.558.862 8.685 1.358 1.954 3.933 2.93 6.794 2.93 4.705 0 7.252-1.38 9.477-4.14 1.716-2.118 2.94-4.724 3.677-7.815.044-.185.078-.363.115-.543H54.71l-.903 3.701H58.1c-.397.925-.867 1.74-1.41 2.44-1.22 1.635-2.966 2.45-4.761 2.45s-3.056-.618-3.885-1.644c-1.015-1.27-1.187-3.273-.52-6.008.648-2.656 1.767-4.688 3.358-6.094 1.415-1.232 3.011-1.848 4.788-1.848.758 0 1.442.142 2.052.425.484.267.9.62 1.247 1.057.267.378.46.785.581 1.22.116.38.141.694.084.942h4.537zM5.264.514L.019 22.024c-.102.413.211.81.633.81h15.562l.957-3.927H5.231l1.417-5.809h8.53l.953-3.9H7.599l1.155-4.727h12.152L21.87.514H5.264zm62.261 8.685l-.952 3.9h12.984l.951-3.9H67.525zM69.641.514l-.964 3.957h16.607l.963-3.957H69.64zm-4.484 18.393l-.956 3.93h16.392l.957-3.93H65.157zM24.914.514h9.556c3.233 0 5.304 1.244 6.21 3.728.666 1.841.663 4.148-.014 6.92-.735 3.017-1.96 5.561-3.675 7.633-2.226 2.694-4.929 4.041-8.104 4.041h-8.582c-.425 0-.737-.4-.636-.814L24.912.514h.002zm-.062 18.506h4.396c1.682 0 3.134-.797 4.356-2.39 1.038-1.312 1.812-3.018 2.327-5.126.711-2.923.62-4.945-.28-6.065-.582-.721-1.561-1.082-2.943-1.082h-4.283L24.853 19.02h-.001z" mask="url(#fo4goy2xpb)"/>
                </g>
                <path fill="#0A85E0" d="M163.626 0c-1.335 0-2.417 1-2.417 2.232 0 1.234 1.082 2.233 2.417 2.233 1.337 0 2.42-1 2.42-2.233S164.962 0 163.625 0zm-1.486 24.181h3.245V7.1h-3.245v17.082z"/>
                <mask id="fi37x9euwd" fill="#fff">
                    <use xlink:href="#qvx39imnac"/>
                </mask>
                <path fill="#AFB6C1" d="M177.33 24.181L178.942 24.181 178.942 1.612 177.33 1.612z" mask="url(#fi37x9euwd)"/>
                <path fill="#29B24A" d="M318.627 8.166h-.874c-.678 0-1.32.126-1.92.381-.601.255-1.13.606-1.583 1.06-.45.45-.804.978-1.057 1.581-.252.603-.382 1.241-.382 1.92v8.838c0 .153.051.291.157.426.103.13.248.196.435.196h2.316c.15 0 .287-.056.41-.169.123-.112.185-.263.185-.453v-8.839c0-.394.14-.734.423-1.017.28-.28.62-.422 1.016-.422h.874c.15 0 .284-.06.395-.184.113-.123.172-.278.172-.464V8.73c0-.34-.19-.527-.568-.564h.001zm-29.66-4.378c0-.187-.061-.328-.182-.423-.123-.094-.261-.14-.41-.14h-2.314c-.19 0-.337.055-.44.17-.102.11-.154.243-.154.393v4.638h-10.462c-2.782 0-5.048 2.267-5.048 5.05v4.04c0 2.786 2.266 5.053 5.048 5.053h8.024v-3.368h-8.024c-.924 0-1.68-.757-1.68-1.684v-4.04c0-.929.756-1.683 1.68-1.683h10.462v6.115c0 .847.126 1.567.38 2.161.252.594.606 1.074 1.056 1.438.456.369.982.637 1.583.807.602.169 1.244.253 1.92.253h.226c.377-.038.567-.227.567-.564v-2.287c0-.19-.059-.345-.171-.468-.112-.12-.244-.182-.394-.182h-.228c-.395 0-.733-.095-1.015-.283-.284-.187-.424-.48-.424-.875v-6.115h3.076V8.426h-3.076V3.788zm15.17 4.638h-4.657c-2.784 0-5.047 2.267-5.047 5.05v4.04c0 2.786 2.263 5.053 5.047 5.053h4.658c2.784 0 5.05-2.267 5.05-5.052v-4.04c0-2.784-2.266-5.051-5.05-5.051zm1.683 9.09c0 .93-.753 1.685-1.682 1.685h-4.658c-.927 0-1.681-.757-1.681-1.684v-4.04c0-.929.754-1.683 1.681-1.683h4.658c.93 0 1.682.754 1.682 1.683v4.04zm-54.62-4.04v4.04c0 2.786 2.264 5.053 5.05 5.053h9.705V8.426h-9.705c-2.786 0-5.05 2.267-5.05 5.05zm11.39 5.723h-6.34c-.93 0-1.683-.754-1.683-1.682v-4.04c0-.929.753-1.684 1.683-1.684h6.34v7.406zM248.123 8.166h-.875c-.677 0-1.318.126-1.92.381-.603.255-1.129.606-1.58 1.06-.452.45-.805.978-1.057 1.581-.255.603-.383 1.241-.383 1.92v8.838c0 .153.05.291.156.426.102.13.248.196.436.196h2.314c.153 0 .288-.056.412-.169.12-.112.184-.263.184-.453v-8.839c0-.394.141-.734.424-1.017.28-.28.617-.422 1.014-.422h.875c.15 0 .283-.06.396-.184.114-.123.171-.278.171-.464V8.73c0-.34-.191-.527-.567-.564zm-14.023.26h-4.657c-2.784 0-5.048 2.267-5.048 5.05v4.042c0 2.786 2.264 5.051 5.048 5.051h8.022v-3.368h-8.022c-.929 0-1.681-.756-1.681-1.683v-.335h9.256c1.175 0 2.132-.955 2.132-2.13v-1.576c0-2.784-2.268-5.05-5.05-5.05zm1.684 5.391h-8.022v-.34c0-.929.752-1.682 1.68-1.682h4.658c.929 0 1.684.753 1.684 1.682v.34zm-15.117-5.651h-1.663V3.788c0-.187-.063-.328-.184-.423-.123-.094-.258-.14-.408-.14h-2.316c-.19 0-.335.055-.438.17-.102.11-.155.243-.155.393v4.378h-1.185c-.378 0-.565.189-.565.566v2.004c0 .416.19.623.565.623h1.185v6.55c0 .847.126 1.567.38 2.161.251.594.608 1.074 1.056 1.438.455.369.981.637 1.585.805.599.17 1.242.255 1.918.255h.225c.377-.039.568-.227.568-.564v-2.287c0-.19-.059-.345-.171-.468-.113-.12-.245-.182-.395-.182h-.227c-.396 0-.735-.095-1.016-.283-.284-.189-.422-.48-.422-.875v-6.552h1.663c.377 0 .568-.206.568-.621V8.732c0-.379-.191-.566-.568-.566zm-14.133.26h-4.656c-2.785 0-5.052 2.267-5.052 5.05v9.093h3.368v-9.092c0-.929.753-1.683 1.684-1.683h4.656c.926 0 1.681.754 1.681 1.683v9.092h3.368v-9.092c0-2.784-2.264-5.051-5.05-5.051zm-14.63.178c-.142-.102-.28-.156-.41-.156h-2.316c-.188 0-.331.057-.424.17-.092.112-.14.246-.14.396v12.989c0 .377.19.566.564.566h2.316c.414 0 .621-.19.621-.566V9.013c0-.17-.07-.305-.214-.41h.003z" mask="url(#fi37x9euwd)"/>
            </g>
        </g>
    </g>
</svg>
